<?xml version="1.0" encoding="utf-8"?>
<!-- Generator: Adobe Illustrator 16.0.0, SVG Export Plug-In . SVG Version: 6.00 Build 0)  -->
<!DOCTYPE svg PUBLIC "-//W3C//DTD SVG 1.1//EN" "http://www.w3.org/Graphics/SVG/1.1/DTD/svg11.dtd">
<svg version="1.1" id="Layer_1" xmlns="http://www.w3.org/2000/svg" xmlns:xlink="http://www.w3.org/1999/xlink" x="0px" y="0px"
	 width="179.089px" height="76.5px" viewBox="0 0 179.089 76.5" enable-background="new 0 0 179.089 76.5" xml:space="preserve">
<g>
	<polyline fill="none" stroke="#F3F3F3" stroke-miterlimit="10" points="3.256,7.707 3.256,20.207 17.256,20.207 17.256,7.707 	"/>
	<polygon fill="none" stroke="#F3F3F3" stroke-miterlimit="10" points="10.419,7.348 3.19,7.348 6.805,4.585 10.419,1.899 
		14.035,4.623 17.649,7.348 	"/>
	<rect x="7.256" y="13.207" fill="none" stroke="#F3F3F3" stroke-miterlimit="10" width="6" height="7"/>
	<circle fill="none" stroke="#F3F3F3" stroke-miterlimit="10" cx="12.336" cy="16.999" r="0.292"/>
</g>
<g>
	<rect x="21.256" y="3.207" fill="none" stroke="#F3F3F3" stroke-miterlimit="10" width="14" height="18"/>
	<line fill="none" stroke="#F3F3F3" stroke-miterlimit="10" x1="23.756" y1="6.207" x2="32.756" y2="6.207"/>
	<line fill="none" stroke="#F3F3F3" stroke-miterlimit="10" x1="23.756" y1="9.207" x2="32.756" y2="9.207"/>
	<line fill="none" stroke="#F3F3F3" stroke-miterlimit="10" x1="23.756" y1="12.207" x2="32.756" y2="12.207"/>
	<line fill="none" stroke="#F3F3F3" stroke-miterlimit="10" x1="23.756" y1="15.207" x2="32.756" y2="15.207"/>
	<line fill="none" stroke="#F3F3F3" stroke-miterlimit="10" x1="23.756" y1="18.207" x2="32.756" y2="18.207"/>
</g>
<path fill="#CC2033" stroke="#FFFFFF" stroke-miterlimit="10" d="M54.256,18.207c0,0-2.25,3-6.5,3c-4.125,0-6.5-3-6.5-3v-8h13
	V18.207z"/>
<polygon fill="#CC2033" stroke="#FFFFFF" stroke-miterlimit="10" points="57.151,10.328 48.059,15.705 38.765,10.125 47.857,3.891 
	"/>
<polyline fill="none" stroke="#FFFFFF" stroke-miterlimit="10" points="47.555,9.27 52.256,12.835 52.256,19.707 "/>
<g>
	
		<rect x="65.235" y="4.364" transform="matrix(-0.8107 0.5855 -0.5855 -0.8107 128.3935 -18.7892)" fill="none" stroke="#F3F3F3" stroke-miterlimit="10" width="3.999" height="14.001"/>
	
		<rect x="60.546" y="3.877" transform="matrix(-0.8107 0.5855 -0.5855 -0.8107 116.1063 -27.7883)" fill="none" stroke="#F3F3F3" stroke-miterlimit="10" width="4" height="2"/>
	<polygon fill="none" stroke="#F3F3F3" stroke-miterlimit="10" points="71.33,17.037 72.73,16.025 73.129,18.052 73.459,19.984 
		71.693,19.016 69.928,18.049 	"/>
</g>
<g>
	<rect x="76.256" y="6.207" fill="none" stroke="#F3F3F3" stroke-miterlimit="10" width="16" height="14"/>
	<line fill="none" stroke="#F3F3F3" stroke-miterlimit="10" x1="80.256" y1="6.707" x2="80.256" y2="20.707"/>
	<line fill="none" stroke="#F3F3F3" stroke-miterlimit="10" x1="84.256" y1="6.707" x2="84.256" y2="20.707"/>
	<line fill="none" stroke="#F3F3F3" stroke-miterlimit="10" x1="76.756" y1="12.207" x2="91.755" y2="12.207"/>
	<line fill="none" stroke="#F3F3F3" stroke-miterlimit="10" x1="76.756" y1="16.207" x2="91.755" y2="16.207"/>
	<line fill="none" stroke="#F3F3F3" stroke-miterlimit="10" x1="88.256" y1="6.707" x2="88.256" y2="20.707"/>
	<rect x="76.256" y="6.207" fill="#F3F3F3" stroke="#F3F3F3" stroke-miterlimit="10" width="16" height="2"/>
</g>
<g>
	<circle fill="none" stroke="#F3F3F3" stroke-miterlimit="10" cx="105.21" cy="12.748" r="8.459"/>
	<path fill="none" stroke="#F3F3F3" stroke-miterlimit="10" d="M101.029,5.288c0,0-3.35,7.629,0,14.704"/>
	<path fill="none" stroke="#F3F3F3" stroke-miterlimit="10" d="M104.061,4.288c0,0-3.758,8.506,0,16.394"/>
	<path fill="none" stroke="#F3F3F3" stroke-miterlimit="10" d="M109.197,5.288c0,0,3.35,7.629,0,14.704"/>
	<path fill="none" stroke="#F3F3F3" stroke-miterlimit="10" d="M106.166,4.288c0,0,3.758,8.506,0,16.394"/>
	<line fill="none" stroke="#F3F3F3" stroke-miterlimit="10" x1="97.755" y1="8.207" x2="111.755" y2="8.207"/>
	<line fill="none" stroke="#F3F3F3" stroke-miterlimit="10" x1="96.755" y1="12.207" x2="112.755" y2="12.207"/>
	<line fill="none" stroke="#F3F3F3" stroke-miterlimit="10" x1="96.755" y1="16.207" x2="112.755" y2="16.207"/>
</g>
<g>
	<g>
		<path fill="none" stroke="#333333" stroke-width="2" stroke-miterlimit="10" d="M11.756,29.707c0-0.552-0.448-1-1-1h-2
			c-0.552,0-1,0.448-1,1v2c0,0.552,0.448,1,1,1h2c0.552,0,1-0.448,1-1V29.707z"/>
	</g>
	<g>
		<path fill="#F3F3F3" d="M18.756,32.707c0-0.552-0.448-1-1-1h-14c-0.552,0-1,0.448-1,1v14c0,0.552,0.448,1,1,1h14
			c0.552,0,1-0.448,1-1V32.707z"/>
		<path fill="none" stroke="#333333" stroke-width="2" stroke-miterlimit="10" d="M18.756,32.707c0-0.552-0.448-1-1-1h-14
			c-0.552,0-1,0.448-1,1v14c0,0.552,0.448,1,1,1h14c0.552,0,1-0.448,1-1V32.707z"/>
	</g>
	<line fill="none" stroke="#333333" stroke-width="2" stroke-miterlimit="10" x1="6.756" y1="31.707" x2="6.756" y2="35.707"/>
	<line fill="none" stroke="#333333" stroke-width="2" stroke-miterlimit="10" x1="12.756" y1="31.707" x2="12.756" y2="35.707"/>
	<g>
		<path fill="#F3F3F3" d="M6.669,41.174c0-1.166,0.309-2.13,0.927-2.892c0.618-0.762,1.521-1.142,2.712-1.142
			s2.095,0.38,2.712,1.142c0.617,0.762,0.927,1.726,0.927,2.892s-0.309,2.129-0.927,2.891c-0.618,0.763-1.521,1.144-2.712,1.144
			s-2.095-0.381-2.712-1.144C6.979,43.303,6.669,42.34,6.669,41.174z M8.053,41.174c0,1.041,0.206,1.813,0.618,2.314
			c0.412,0.5,0.958,0.752,1.637,0.752c0.679,0,1.225-0.252,1.637-0.752c0.412-0.502,0.618-1.273,0.618-2.314
			c0-1.042-0.206-1.813-0.618-2.314c-0.412-0.501-0.958-0.751-1.637-0.751c-0.679,0-1.226,0.25-1.637,0.751
			C8.259,39.359,8.053,40.132,8.053,41.174z"/>
	</g>
</g>
<g>
	<path fill="#FFFFFF" d="M22.977,40.047c-0.299-0.156-0.449-0.361-0.449-0.617v-1.031c0-0.255,0.15-0.46,0.449-0.617l10.553-5.619
		c0.396-0.209,0.684-0.148,0.865,0.18l0.417,0.795c0.172,0.328,0.065,0.598-0.324,0.808l-9.345,4.965v0.022l9.345,4.953
		c0.389,0.209,0.496,0.479,0.324,0.807l-0.417,0.795c-0.181,0.33-0.468,0.389-0.865,0.179L22.977,40.047z"/>
</g>
<g>
	<path fill="#FFFFFF" d="M38.444,45.748c-0.396,0.211-0.684,0.15-0.865-0.18l-0.417-0.793c-0.172-0.33-0.065-0.598,0.324-0.807
		l9.345-4.953v-0.023l-9.345-4.965c-0.389-0.209-0.496-0.479-0.324-0.807l0.417-0.795c0.181-0.328,0.468-0.389,0.865-0.18
		l10.553,5.619c0.299,0.156,0.449,0.361,0.449,0.616v1.032c0,0.254-0.15,0.459-0.449,0.617L38.444,45.748z"/>
</g>
<polygon fill="#FFFFFF" points="8.122,51.75 13.122,51.75 10.621,55.985 8.122,60.268 5.622,56.009 3.122,51.75 "/>
</svg>
